<svg width="20" height="20" viewBox="0 0 20 20" fill="none" xmlns="http://www.w3.org/2000/svg">
<circle cx="10" cy="10" r="10" fill="#009E7F"/>
<g clip-path="url(#clip0_3901:1149)">
<path d="M5 12.9184V15.0017H7.08333L13.2222 8.86285L11.1389 6.77952L5 12.9184ZM14.8333 7.25175C14.8859 7.20155 14.9278 7.14121 14.9564 7.07436C14.985 7.00752 14.9998 6.93556 14.9998 6.86285C14.9998 6.79014 14.985 6.71819 14.9564 6.65134C14.9278 6.5845 14.8859 6.52415 14.8333 6.47396L13.5278 5.16841C13.4776 5.1158 13.4172 5.07393 13.3504 5.04531C13.2836 5.0167 13.2116 5.00195 13.1389 5.00195C13.0662 5.00195 12.9942 5.0167 12.9274 5.04531C12.8605 5.07393 12.8002 5.1158 12.75 5.16841L11.7222 6.19619L13.8056 8.27952L14.8333 7.25175Z" fill="white"/>
</g>
<defs>
<clipPath id="clip0_3901:1149">
<rect width="10" height="10" fill="white" transform="translate(5 5)"/>
</clipPath>
</defs>
</svg>
