<svg width="232" height="292" viewBox="0 0 232 292" fill="none" xmlns="http://www.w3.org/2000/svg">
<g clip-path="url(#clip0_19:34)">
<path opacity="0.25" d="M115.955 292C179.995 292 231.91 279.748 231.91 264.634C231.91 249.52 179.995 237.268 115.955 237.268C51.9148 237.268 0 249.52 0 264.634C0 279.748 51.9148 292 115.955 292Z" fill="#DDDDDD"/>
<path d="M44.6317 30H185.368C193.278 30.0518 200.844 33.2438 206.401 38.8738C211.958 44.5037 215.051 52.1106 215 60.021V239.979C215.051 247.889 211.958 255.496 206.401 261.126C200.844 266.756 193.278 269.948 185.368 270H44.6317C36.7212 269.948 29.1554 266.756 23.5984 261.126C18.0413 255.496 14.9483 247.889 14.9997 239.979V60.021C14.9483 52.1106 18.0413 44.5037 23.5984 38.8738C29.1554 33.2438 36.7212 30.0518 44.6317 30V30Z" fill="#009E7F"/>
<path d="M45 30H185C192.956 30 200.587 33.1607 206.213 38.7868C211.839 44.4129 215 52.0435 215 60C215 67.9565 211.839 75.5871 206.213 81.2132C200.587 86.8393 192.956 90 185 90H27.857C24.4471 90 21.1769 88.6454 18.7657 86.2343C16.3546 83.8231 15 80.5529 15 77.143L15 60C15 52.0435 18.1607 44.4129 23.7868 38.7868C29.4129 33.1607 37.0435 30 45 30V30Z" fill="#006854"/>
<path d="M57 30H173C184.139 30 194.822 34.425 202.698 42.3015C210.575 50.178 215 60.8609 215 72C215 76.7739 213.104 81.3523 209.728 84.7279C206.352 88.1036 201.774 90 197 90H33C28.2261 90 23.6477 88.1036 20.2721 84.7279C16.8964 81.3523 15 76.7739 15 72H15C15 60.8609 19.425 50.178 27.3015 42.3015C35.178 34.425 45.8609 30 57 30V30Z" fill="#006854"/>
<path d="M115 60C109.067 60 103.266 58.2405 98.3329 54.9441C93.3994 51.6477 89.5543 46.9623 87.2836 41.4805C85.013 35.9987 84.4189 29.9667 85.5765 24.1473C86.734 18.3279 89.5912 12.9824 93.7868 8.78681C97.9824 4.59124 103.328 1.73401 109.147 0.576456C114.967 -0.581101 120.999 0.0129957 126.481 2.28362C131.962 4.55425 136.648 8.39942 139.944 13.3329C143.241 18.2664 145 24.0666 145 30C144.991 37.9537 141.827 45.5791 136.203 51.2033C130.579 56.8274 122.954 59.991 115 60ZM115 6.706C110.404 6.76321 105.928 8.17836 102.135 10.7734C98.3411 13.3684 95.3999 17.0274 93.6809 21.29C91.962 25.5526 91.5421 30.2283 92.4741 34.729C93.4061 39.2296 95.6484 43.3541 98.9188 46.5835C102.189 49.8129 106.342 52.0029 110.854 52.878C115.366 53.7531 120.036 53.2742 124.276 51.5015C128.517 49.7289 132.138 46.7417 134.685 42.9158C137.232 39.0899 138.591 34.5961 138.59 30C138.543 23.7852 136.033 17.8426 131.611 13.4757C127.189 9.1089 121.215 6.67432 115 6.706Z" fill="#006854"/>
<path d="M116.104 119.865C110.17 119.865 104.37 118.106 99.4364 114.809C94.5029 111.513 90.6578 106.827 88.3872 101.346C86.1165 95.8637 85.5224 89.8317 86.68 84.0123C87.8375 78.1929 90.6948 72.8474 94.8903 68.6518C99.0859 64.4562 104.431 61.599 110.251 60.4415C116.07 59.2839 122.102 59.878 127.584 62.1486C133.066 64.4192 137.751 68.2644 141.048 73.1979C144.344 78.1314 146.104 83.9316 146.104 89.865C146.095 97.8187 142.931 105.444 137.307 111.068C131.683 116.692 124.057 119.856 116.104 119.865ZM116.104 66.571C111.508 66.6282 107.032 68.0434 103.238 70.6384C99.4446 73.2334 96.5034 76.8924 94.7844 81.155C93.0655 85.4176 92.6456 90.0933 93.5776 94.594C94.5096 99.0946 96.7519 103.219 100.022 106.448C103.293 109.678 107.445 111.868 111.957 112.743C116.469 113.618 121.139 113.139 125.38 111.367C129.62 109.594 133.242 106.607 135.789 102.781C138.336 98.9549 139.694 94.4611 139.694 89.865C139.647 83.6502 137.137 77.7076 132.715 73.3407C128.292 68.9739 122.318 66.5393 116.104 66.571Z" fill="#009E7F"/>
<path d="M114.512 217.424C130.357 217.424 143.201 204.579 143.201 188.735C143.201 172.89 130.357 160.046 114.512 160.046C98.6677 160.046 85.8232 172.89 85.8232 188.735C85.8232 204.579 98.6677 217.424 114.512 217.424Z" fill="#006854"/>
<path d="M125.319 207.493C131.195 201.617 131.195 192.091 125.319 186.215C119.443 180.339 109.916 180.339 104.04 186.215C98.1647 192.091 98.1647 201.617 104.04 207.493C109.916 213.369 119.443 213.369 125.319 207.493Z" fill="#009E7F"/>
<path d="M72.2889 144.567C75.8985 139.505 80.1508 134.933 84.9389 130.967C88.3389 128.104 83.4389 123.241 80.0569 126.085C74.8484 130.468 70.2329 135.51 66.3269 141.085C63.7669 144.729 69.7509 148.185 72.2889 144.57V144.567Z" fill="#006854"/>
<path d="M85.479 141.082C81.5728 135.507 76.9573 130.465 71.749 126.082C68.369 123.239 63.46 128.099 66.867 130.964C71.6548 134.93 75.9071 139.502 79.517 144.564C82.052 148.173 88.042 144.726 85.479 141.079V141.082Z" fill="#006854"/>
<path d="M165.583 141.082C161.676 135.507 157.061 130.465 151.852 126.082C148.472 123.239 143.564 128.099 146.971 130.964C151.758 134.93 156.011 139.502 159.621 144.564C162.156 148.173 168.146 144.726 165.583 141.079V141.082Z" fill="#006854"/>
<path d="M152.393 144.567C156.003 139.505 160.255 134.933 165.043 130.967C168.443 128.104 163.543 123.241 160.161 126.085C154.953 130.468 150.337 135.51 146.431 141.085C143.871 144.729 149.855 148.185 152.393 144.57V144.567Z" fill="#006854"/>
<path d="M205.544 38C209.15 40.0677 211.983 43.2543 213.615 47.077C214.686 49.5652 215.231 52.2481 215.215 54.957V81.042C215.251 84.4721 214.374 87.85 212.674 90.8297C210.975 93.8093 208.514 96.2836 205.543 97.999C195.495 91.141 188.999 80.257 188.999 67.999C188.999 55.741 195.501 44.858 205.544 38Z" fill="url(#paint0_linear_19:34)"/>
<path d="M24.672 38C21.0664 40.0677 18.2329 43.2543 16.601 47.077C15.5299 49.5652 14.9851 52.2481 15.001 54.957V81.042C14.9654 84.4721 15.8422 87.85 17.5418 90.8297C19.2413 93.8093 21.7025 96.2836 24.673 97.999C34.721 91.141 41.217 80.257 41.217 67.999C41.217 55.741 34.72 44.858 24.672 38Z" fill="url(#paint1_linear_19:34)"/>
</g>
<defs>
<linearGradient id="paint0_linear_19:34" x1="215.216" y1="64.3396" x2="189.481" y2="74.3373" gradientUnits="userSpaceOnUse">
<stop stop-color="#029477"/>
<stop offset="1" stop-color="#009E7F"/>
</linearGradient>
<linearGradient id="paint1_linear_19:34" x1="41.217" y1="64.3396" x2="15.4819" y2="74.3372" gradientUnits="userSpaceOnUse">
<stop stop-color="#029477"/>
<stop offset="1" stop-color="#009E7F"/>
</linearGradient>
<clipPath id="clip0_19:34">
<rect width="231.91" height="292" fill="white"/>
</clipPath>
</defs>
</svg>
