<svg width="13" height="16" viewBox="0 0 13 16" fill="none" xmlns="http://www.w3.org/2000/svg">
<g clip-path="url(#clip0_18:856)">
<path d="M12.6773 13.194L11.9633 4.194C11.9427 3.91178 11.8165 3.6477 11.6098 3.4544C11.4032 3.26109 11.1313 3.15276 10.8483 3.151H9.43631V5.251C9.43924 5.31434 9.42929 5.37763 9.40707 5.43702C9.38484 5.49641 9.3508 5.55068 9.30701 5.59654C9.26322 5.64241 9.21058 5.67891 9.15228 5.70385C9.09398 5.72879 9.03122 5.74165 8.96781 5.74165C8.9044 5.74165 8.84164 5.72879 8.78334 5.70385C8.72504 5.67891 8.6724 5.64241 8.62861 5.59654C8.58482 5.55068 8.55078 5.49641 8.52856 5.43702C8.50633 5.37763 8.49638 5.31434 8.49931 5.251V3.151H4.18831V5.251C4.19124 5.31434 4.18129 5.37763 4.15907 5.43702C4.13684 5.49641 4.10281 5.55068 4.05901 5.59654C4.01522 5.64241 3.96258 5.67891 3.90428 5.70385C3.84598 5.72879 3.78322 5.74165 3.71981 5.74165C3.6564 5.74165 3.59364 5.72879 3.53534 5.70385C3.47704 5.67891 3.4244 5.64241 3.38061 5.59654C3.33682 5.55068 3.30278 5.49641 3.28056 5.43702C3.25833 5.37763 3.24838 5.31434 3.25131 5.251V3.151H1.83931C1.5576 3.15206 1.28654 3.25878 1.07971 3.45005C0.872885 3.64132 0.745345 3.90323 0.722309 4.184L0.00730896 13.19C-0.0195434 13.5477 0.0277735 13.9071 0.146294 14.2457C0.264814 14.5843 0.451985 14.8947 0.696075 15.1576C0.940166 15.4204 1.23591 15.6301 1.56479 15.7733C1.89367 15.9165 2.24859 15.9903 2.60731 15.99H10.0773C10.4366 15.9904 10.792 15.9164 11.1213 15.7728C11.4507 15.6292 11.7467 15.4191 11.9909 15.1555C12.2351 14.892 12.4221 14.5808 12.5402 14.2415C12.6584 13.9023 12.705 13.5422 12.6773 13.184V13.194ZM8.45331 8.609L6.02931 11.033C5.98583 11.0766 5.93417 11.1113 5.87728 11.1349C5.82039 11.1585 5.75941 11.1706 5.69781 11.1706C5.63622 11.1706 5.57522 11.1585 5.51834 11.1349C5.46145 11.1113 5.40979 11.0766 5.36631 11.033L4.23031 9.897C4.14646 9.80826 4.10052 9.69033 4.10225 9.56825C4.10398 9.44618 4.15324 9.32959 4.23957 9.24326C4.3259 9.15694 4.44249 9.10767 4.56456 9.10594C4.68663 9.10421 4.80457 9.15015 4.89331 9.234L5.69331 10.034L7.78531 7.942C7.82838 7.89642 7.88015 7.85994 7.93756 7.83472C7.99497 7.80949 8.05686 7.79604 8.11956 7.79515C8.18226 7.79426 8.2445 7.80596 8.30261 7.82954C8.36071 7.85313 8.4135 7.88813 8.45784 7.93247C8.50218 7.97681 8.53718 8.0296 8.56076 8.0877C8.58435 8.1458 8.59605 8.20805 8.59516 8.27075C8.59427 8.33345 8.58081 8.39534 8.55559 8.45275C8.53037 8.51016 8.49389 8.56194 8.44831 8.605L8.45331 8.609Z" fill="white"/>
<path d="M6.34398 0C5.52423 0.00184896 4.73859 0.328311 4.15894 0.907961C3.57929 1.48761 3.25283 2.27325 3.25098 3.093V3.156H4.18797V3.093C4.18797 2.52133 4.41507 1.97307 4.81931 1.56883C5.22354 1.1646 5.7718 0.9375 6.34348 0.9375C6.91515 0.9375 7.46341 1.1646 7.86765 1.56883C8.27188 1.97307 8.49898 2.52133 8.49898 3.093V3.156H9.43597V3.093C9.43413 2.27343 9.1078 1.48793 8.52837 0.908313C7.94893 0.328692 7.16355 0.00211295 6.34398 0V0Z" fill="white"/>
</g>
<defs>
<clipPath id="clip0_18:856">
<rect width="12.686" height="16" fill="white"/>
</clipPath>
</defs>
</svg>
