<svg width="19" height="24" viewBox="0 0 19 24" fill="none" xmlns="http://www.w3.org/2000/svg">
<g clip-path="url(#clip0_19:19)">
<path d="M18.987 19.7608L17.9176 6.28135C17.8867 5.85867 17.6977 5.46316 17.3882 5.17364C17.0787 4.88413 16.6715 4.72188 16.2477 4.71924H14.1329V7.86444C14.1373 7.95931 14.1224 8.05409 14.0891 8.14304C14.0558 8.23199 14.0048 8.31327 13.9392 8.38196C13.8737 8.45065 13.7948 8.50532 13.7075 8.54268C13.6202 8.58003 13.5262 8.59929 13.4312 8.59929C13.3362 8.59929 13.2423 8.58003 13.1549 8.54268C13.0676 8.50532 12.9888 8.45065 12.9232 8.38196C12.8576 8.31327 12.8066 8.23199 12.7733 8.14304C12.7401 8.05409 12.7252 7.95931 12.7295 7.86444V4.71924H6.27289V7.86444C6.27727 7.95931 6.26238 8.05409 6.22909 8.14304C6.19581 8.23199 6.14483 8.31327 6.07924 8.38196C6.01365 8.45065 5.93481 8.50532 5.84749 8.54268C5.76017 8.58003 5.66619 8.59929 5.57121 8.59929C5.47624 8.59929 5.38225 8.58003 5.29493 8.54268C5.20761 8.50532 5.12877 8.45065 5.06318 8.38196C4.99759 8.31327 4.94662 8.23199 4.91333 8.14304C4.88005 8.05409 4.86515 7.95931 4.86953 7.86444V4.71924H2.75476C2.33284 4.72083 1.92687 4.88066 1.6171 5.16713C1.30733 5.4536 1.11631 5.84586 1.08181 6.26637L0.0109467 19.7548C-0.0292705 20.2905 0.0415968 20.8288 0.219106 21.3359C0.396615 21.843 0.676944 22.308 1.04252 22.7017C1.4081 23.0954 1.85105 23.4093 2.34361 23.6238C2.83618 23.8384 3.36775 23.9489 3.90501 23.9484H15.0929C15.631 23.949 16.1634 23.8382 16.6566 23.6231C17.1498 23.4081 17.5932 23.0933 17.9589 22.6986C18.3246 22.3039 18.6048 21.8379 18.7817 21.3297C18.9586 20.8215 19.0285 20.2823 18.987 19.7458V19.7608ZM12.6606 12.8938L9.03018 16.5242C8.96506 16.5896 8.88769 16.6414 8.80249 16.6768C8.71729 16.7122 8.62594 16.7304 8.53369 16.7304C8.44144 16.7304 8.35009 16.7122 8.26489 16.6768C8.17969 16.6414 8.10232 16.5896 8.0372 16.5242L6.33579 14.8228C6.21021 14.6899 6.14141 14.5133 6.144 14.3304C6.14659 14.1476 6.22037 13.973 6.34966 13.8437C6.47896 13.7144 6.65357 13.6406 6.83641 13.638C7.01924 13.6354 7.19587 13.7043 7.32878 13.8298L8.52695 15.028L11.6602 11.8948C11.7247 11.8265 11.8022 11.7719 11.8882 11.7341C11.9742 11.6963 12.0669 11.6762 12.1608 11.6748C12.2547 11.6735 12.3479 11.691 12.4349 11.7264C12.522 11.7617 12.601 11.8141 12.6674 11.8805C12.7338 11.9469 12.7863 12.026 12.8216 12.113C12.8569 12.2 12.8744 12.2933 12.8731 12.3872C12.8718 12.4811 12.8516 12.5738 12.8138 12.6597C12.7761 12.7457 12.7214 12.8233 12.6532 12.8878L12.6606 12.8938Z" fill="#009E7F"/>
<path d="M9.50157 0C8.27383 0.00276921 7.09715 0.491717 6.229 1.35987C5.36085 2.22802 4.87191 3.40468 4.86914 4.63243V4.72679H6.27249V4.63243C6.27249 3.77623 6.61262 2.95509 7.21805 2.34966C7.82348 1.74423 8.64462 1.40411 9.50082 1.40411C10.357 1.40411 11.1782 1.74423 11.7836 2.34966C12.389 2.95509 12.7291 3.77623 12.7291 4.63243V4.72679H14.1325V4.63243C14.1297 3.40494 13.641 2.2285 12.7732 1.36039C11.9053 0.492286 10.7291 0.0031646 9.50157 0V0Z" fill="#009E7F"/>
</g>
<defs>
<clipPath id="clip0_19:19">
<rect width="19" height="23.9634" fill="white"/>
</clipPath>
</defs>
</svg>
